<?xml version="1.0" encoding="utf-8" standalone="no"?>
<!DOCTYPE svg PUBLIC "-//W3C//DTD SVG 1.1//EN"
  "http://www.w3.org/Graphics/SVG/1.1/DTD/svg11.dtd">
<svg xmlns:xlink="http://www.w3.org/1999/xlink" width="512pt" height="352pt" viewBox="0 0 512 352" xmlns="http://www.w3.org/2000/svg" version="1.1">
 <metadata>
  <rdf:RDF xmlns:dc="http://purl.org/dc/elements/1.1/" xmlns:cc="http://creativecommons.org/ns#" xmlns:rdf="http://www.w3.org/1999/02/22-rdf-syntax-ns#">
   <cc:Work>
    <dc:type rdf:resource="http://purl.org/dc/dcmitype/StillImage"/>
    <dc:date>2025-02-26T13:19:49.694337</dc:date>
    <dc:format>image/svg+xml</dc:format>
    <dc:creator>
     <cc:Agent>
      <dc:title>Matplotlib v3.10.0, https://matplotlib.org/</dc:title>
     </cc:Agent>
    </dc:creator>
   </cc:Work>
  </rdf:RDF>
 </metadata>
 <defs>
  <style type="text/css">*{stroke-linejoin: round; stroke-linecap: butt}</style>
 </defs>
 <g id="figure_1">
  <g id="patch_1">
   <path d="M 0 352 
L 512 352 
L 512 0 
L 0 0 
z
" style="fill: #ffffff"/>
  </g>
  <g id="axes_1">
   <g id="patch_2">
    <path d="M 64 308 
L 460.8 308 
L 460.8 290.4 
L 64 290.4 
z
" clip-path="url(#p712d963713)" style="fill-opacity: 0.05098"/>
   </g>
   <g id="patch_3">
    <path d="M 64 286 
L 460.8 286 
L 460.8 268.4 
L 64 268.4 
L 64 286 
z
" clip-path="url(#p712d963713)" style="fill: none"/>
   </g>
   <g id="patch_4">
    <path d="M 64 264 
L 460.8 264 
L 460.8 246.4 
L 64 246.4 
z
" clip-path="url(#p712d963713)" style="fill-opacity: 0.05098"/>
   </g>
   <g id="patch_5">
    <path d="M 64 242 
L 460.8 242 
L 460.8 224.4 
L 64 224.4 
L 64 242 
z
" clip-path="url(#p712d963713)" style="fill: none"/>
   </g>
   <g id="patch_6">
    <path d="M 64 220 
L 460.8 220 
L 460.8 202.4 
L 64 202.4 
z
" clip-path="url(#p712d963713)" style="fill-opacity: 0.05098"/>
   </g>
   <g id="matplotlib.axis_1"/>
   <g id="matplotlib.axis_2">
    <g id="ytick_1"/>
    <g id="ytick_2"/>
    <g id="ytick_3"/>
    <g id="ytick_4"/>
    <g id="ytick_5"/>
   </g>
  </g>
  <g id="axes_2">
   <g id="matplotlib.axis_3">
    <g id="ytick_6">
     <g id="line2d_1"/>
     <g id="text_1">
      <!-- RF_RFE_CV1 -->
      <g transform="translate(136.879868 305.1375) scale(0.16 -0.16)">
       <defs>
        <path id="DejaVuSans-52" d="M 2841 2188 
Q 3044 2119 3236 1894 
Q 3428 1669 3622 1275 
L 4263 0 
L 3584 0 
L 2988 1197 
Q 2756 1666 2539 1819 
Q 2322 1972 1947 1972 
L 1259 1972 
L 1259 0 
L 628 0 
L 628 4666 
L 2053 4666 
Q 2853 4666 3247 4331 
Q 3641 3997 3641 3322 
Q 3641 2881 3436 2590 
Q 3231 2300 2841 2188 
z
M 1259 4147 
L 1259 2491 
L 2053 2491 
Q 2509 2491 2742 2702 
Q 2975 2913 2975 3322 
Q 2975 3731 2742 3939 
Q 2509 4147 2053 4147 
L 1259 4147 
z
" transform="scale(0.015625)"/>
        <path id="DejaVuSans-46" d="M 628 4666 
L 3309 4666 
L 3309 4134 
L 1259 4134 
L 1259 2759 
L 3109 2759 
L 3109 2228 
L 1259 2228 
L 1259 0 
L 628 0 
L 628 4666 
z
" transform="scale(0.015625)"/>
        <path id="DejaVuSans-5f" d="M 3263 -1063 
L 3263 -1509 
L -63 -1509 
L -63 -1063 
L 3263 -1063 
z
" transform="scale(0.015625)"/>
        <path id="DejaVuSans-45" d="M 628 4666 
L 3578 4666 
L 3578 4134 
L 1259 4134 
L 1259 2753 
L 3481 2753 
L 3481 2222 
L 1259 2222 
L 1259 531 
L 3634 531 
L 3634 0 
L 628 0 
L 628 4666 
z
" transform="scale(0.015625)"/>
        <path id="DejaVuSans-43" d="M 4122 4306 
L 4122 3641 
Q 3803 3938 3442 4084 
Q 3081 4231 2675 4231 
Q 1875 4231 1450 3742 
Q 1025 3253 1025 2328 
Q 1025 1406 1450 917 
Q 1875 428 2675 428 
Q 3081 428 3442 575 
Q 3803 722 4122 1019 
L 4122 359 
Q 3791 134 3420 21 
Q 3050 -91 2638 -91 
Q 1578 -91 968 557 
Q 359 1206 359 2328 
Q 359 3453 968 4101 
Q 1578 4750 2638 4750 
Q 3056 4750 3426 4639 
Q 3797 4528 4122 4306 
z
" transform="scale(0.015625)"/>
        <path id="DejaVuSans-56" d="M 1831 0 
L 50 4666 
L 709 4666 
L 2188 738 
L 3669 4666 
L 4325 4666 
L 2547 0 
L 1831 0 
z
" transform="scale(0.015625)"/>
        <path id="DejaVuSans-31" d="M 794 531 
L 1825 531 
L 1825 4091 
L 703 3866 
L 703 4441 
L 1819 4666 
L 2450 4666 
L 2450 531 
L 3481 531 
L 3481 0 
L 794 0 
L 794 531 
z
" transform="scale(0.015625)"/>
       </defs>
       <use xlink:href="#DejaVuSans-52"/>
       <use xlink:href="#DejaVuSans-46" transform="translate(69.482422 0)"/>
       <use xlink:href="#DejaVuSans-5f" transform="translate(127.001953 0)"/>
       <use xlink:href="#DejaVuSans-52" transform="translate(177.001953 0)"/>
       <use xlink:href="#DejaVuSans-46" transform="translate(246.484375 0)"/>
       <use xlink:href="#DejaVuSans-45" transform="translate(304.003906 0)"/>
       <use xlink:href="#DejaVuSans-5f" transform="translate(367.1875 0)"/>
       <use xlink:href="#DejaVuSans-43" transform="translate(417.1875 0)"/>
       <use xlink:href="#DejaVuSans-56" transform="translate(487.011719 0)"/>
       <use xlink:href="#DejaVuSans-31" transform="translate(555.419922 0)"/>
      </g>
     </g>
    </g>
    <g id="ytick_7">
     <g id="line2d_2"/>
     <g id="text_2">
      <!-- RF_RFE_CV2 -->
      <g transform="translate(136.879868 283.1375) scale(0.16 -0.16)">
       <defs>
        <path id="DejaVuSans-32" d="M 1228 531 
L 3431 531 
L 3431 0 
L 469 0 
L 469 531 
Q 828 903 1448 1529 
Q 2069 2156 2228 2338 
Q 2531 2678 2651 2914 
Q 2772 3150 2772 3378 
Q 2772 3750 2511 3984 
Q 2250 4219 1831 4219 
Q 1534 4219 1204 4116 
Q 875 4013 500 3803 
L 500 4441 
Q 881 4594 1212 4672 
Q 1544 4750 1819 4750 
Q 2544 4750 2975 4387 
Q 3406 4025 3406 3419 
Q 3406 3131 3298 2873 
Q 3191 2616 2906 2266 
Q 2828 2175 2409 1742 
Q 1991 1309 1228 531 
z
" transform="scale(0.015625)"/>
       </defs>
       <use xlink:href="#DejaVuSans-52"/>
       <use xlink:href="#DejaVuSans-46" transform="translate(69.482422 0)"/>
       <use xlink:href="#DejaVuSans-5f" transform="translate(127.001953 0)"/>
       <use xlink:href="#DejaVuSans-52" transform="translate(177.001953 0)"/>
       <use xlink:href="#DejaVuSans-46" transform="translate(246.484375 0)"/>
       <use xlink:href="#DejaVuSans-45" transform="translate(304.003906 0)"/>
       <use xlink:href="#DejaVuSans-5f" transform="translate(367.1875 0)"/>
       <use xlink:href="#DejaVuSans-43" transform="translate(417.1875 0)"/>
       <use xlink:href="#DejaVuSans-56" transform="translate(487.011719 0)"/>
       <use xlink:href="#DejaVuSans-32" transform="translate(555.419922 0)"/>
      </g>
     </g>
    </g>
    <g id="ytick_8">
     <g id="line2d_3"/>
     <g id="text_3">
      <!-- RF_RFE_CV3 -->
      <g transform="translate(136.879868 261.1375) scale(0.16 -0.16)">
       <defs>
        <path id="DejaVuSans-33" d="M 2597 2516 
Q 3050 2419 3304 2112 
Q 3559 1806 3559 1356 
Q 3559 666 3084 287 
Q 2609 -91 1734 -91 
Q 1441 -91 1130 -33 
Q 819 25 488 141 
L 488 750 
Q 750 597 1062 519 
Q 1375 441 1716 441 
Q 2309 441 2620 675 
Q 2931 909 2931 1356 
Q 2931 1769 2642 2001 
Q 2353 2234 1838 2234 
L 1294 2234 
L 1294 2753 
L 1863 2753 
Q 2328 2753 2575 2939 
Q 2822 3125 2822 3475 
Q 2822 3834 2567 4026 
Q 2313 4219 1838 4219 
Q 1578 4219 1281 4162 
Q 984 4106 628 3988 
L 628 4550 
Q 988 4650 1302 4700 
Q 1616 4750 1894 4750 
Q 2613 4750 3031 4423 
Q 3450 4097 3450 3541 
Q 3450 3153 3228 2886 
Q 3006 2619 2597 2516 
z
" transform="scale(0.015625)"/>
       </defs>
       <use xlink:href="#DejaVuSans-52"/>
       <use xlink:href="#DejaVuSans-46" transform="translate(69.482422 0)"/>
       <use xlink:href="#DejaVuSans-5f" transform="translate(127.001953 0)"/>
       <use xlink:href="#DejaVuSans-52" transform="translate(177.001953 0)"/>
       <use xlink:href="#DejaVuSans-46" transform="translate(246.484375 0)"/>
       <use xlink:href="#DejaVuSans-45" transform="translate(304.003906 0)"/>
       <use xlink:href="#DejaVuSans-5f" transform="translate(367.1875 0)"/>
       <use xlink:href="#DejaVuSans-43" transform="translate(417.1875 0)"/>
       <use xlink:href="#DejaVuSans-56" transform="translate(487.011719 0)"/>
       <use xlink:href="#DejaVuSans-33" transform="translate(555.419922 0)"/>
      </g>
     </g>
    </g>
    <g id="ytick_9">
     <g id="line2d_4"/>
     <g id="text_4">
      <!-- RF_RFE_CV4 -->
      <g transform="translate(136.879868 239.1375) scale(0.16 -0.16)">
       <defs>
        <path id="DejaVuSans-34" d="M 2419 4116 
L 825 1625 
L 2419 1625 
L 2419 4116 
z
M 2253 4666 
L 3047 4666 
L 3047 1625 
L 3713 1625 
L 3713 1100 
L 3047 1100 
L 3047 0 
L 2419 0 
L 2419 1100 
L 313 1100 
L 313 1709 
L 2253 4666 
z
" transform="scale(0.015625)"/>
       </defs>
       <use xlink:href="#DejaVuSans-52"/>
       <use xlink:href="#DejaVuSans-46" transform="translate(69.482422 0)"/>
       <use xlink:href="#DejaVuSans-5f" transform="translate(127.001953 0)"/>
       <use xlink:href="#DejaVuSans-52" transform="translate(177.001953 0)"/>
       <use xlink:href="#DejaVuSans-46" transform="translate(246.484375 0)"/>
       <use xlink:href="#DejaVuSans-45" transform="translate(304.003906 0)"/>
       <use xlink:href="#DejaVuSans-5f" transform="translate(367.1875 0)"/>
       <use xlink:href="#DejaVuSans-43" transform="translate(417.1875 0)"/>
       <use xlink:href="#DejaVuSans-56" transform="translate(487.011719 0)"/>
       <use xlink:href="#DejaVuSans-34" transform="translate(555.419922 0)"/>
      </g>
     </g>
    </g>
    <g id="ytick_10">
     <g id="line2d_5"/>
     <g id="text_5">
      <!-- RF_RFE_CV5 -->
      <g transform="translate(136.879868 217.1375) scale(0.16 -0.16)">
       <defs>
        <path id="DejaVuSans-35" d="M 691 4666 
L 3169 4666 
L 3169 4134 
L 1269 4134 
L 1269 2991 
Q 1406 3038 1543 3061 
Q 1681 3084 1819 3084 
Q 2600 3084 3056 2656 
Q 3513 2228 3513 1497 
Q 3513 744 3044 326 
Q 2575 -91 1722 -91 
Q 1428 -91 1123 -41 
Q 819 9 494 109 
L 494 744 
Q 775 591 1075 516 
Q 1375 441 1709 441 
Q 2250 441 2565 725 
Q 2881 1009 2881 1497 
Q 2881 1984 2565 2268 
Q 2250 2553 1709 2553 
Q 1456 2553 1204 2497 
Q 953 2441 691 2322 
L 691 4666 
z
" transform="scale(0.015625)"/>
       </defs>
       <use xlink:href="#DejaVuSans-52"/>
       <use xlink:href="#DejaVuSans-46" transform="translate(69.482422 0)"/>
       <use xlink:href="#DejaVuSans-5f" transform="translate(127.001953 0)"/>
       <use xlink:href="#DejaVuSans-52" transform="translate(177.001953 0)"/>
       <use xlink:href="#DejaVuSans-46" transform="translate(246.484375 0)"/>
       <use xlink:href="#DejaVuSans-45" transform="translate(304.003906 0)"/>
       <use xlink:href="#DejaVuSans-5f" transform="translate(367.1875 0)"/>
       <use xlink:href="#DejaVuSans-43" transform="translate(417.1875 0)"/>
       <use xlink:href="#DejaVuSans-56" transform="translate(487.011719 0)"/>
       <use xlink:href="#DejaVuSans-35" transform="translate(555.419922 0)"/>
      </g>
     </g>
    </g>
   </g>
   <g id="LineCollection_1">
    <path d="M 251.725848 233.2 
L 251.725848 233.2 
" clip-path="url(#pa22426bdd7)" style="fill: none; stroke: #000000; stroke-width: 2"/>
    <path d="M 276.322807 211.2 
L 276.322807 211.2 
" clip-path="url(#pa22426bdd7)" style="fill: none; stroke: #000000; stroke-width: 2"/>
    <path d="M 300.919766 299.2 
L 300.919766 255.2 
" clip-path="url(#pa22426bdd7)" style="fill: none; stroke: #000000; stroke-width: 2"/>
    <path d="M 325.516725 255.2 
L 325.516725 233.2 
" clip-path="url(#pa22426bdd7)" style="fill: none; stroke: #000000; stroke-width: 2"/>
    <path d="M 350.113684 299.2 
L 350.113684 211.2 
" clip-path="url(#pa22426bdd7)" style="fill: none; stroke: #000000; stroke-width: 2"/>
    <path d="M 374.710643 277.2 
L 374.710643 211.2 
" clip-path="url(#pa22426bdd7)" style="fill: none; stroke: #000000; stroke-width: 2"/>
    <path d="M 399.307602 299.2 
L 399.307602 233.2 
" clip-path="url(#pa22426bdd7)" style="fill: none; stroke: #000000; stroke-width: 2"/>
    <path d="M 423.904561 299.2 
L 423.904561 211.2 
" clip-path="url(#pa22426bdd7)" style="fill: none; stroke: #000000; stroke-width: 2"/>
    <path d="M 448.50152 299.2 
L 448.50152 211.2 
" clip-path="url(#pa22426bdd7)" style="fill: none; stroke: #000000; stroke-width: 2"/>
   </g>
   <g id="PathCollection_1">
    <defs>
     <path id="C0_0_5f30103973" d="M 0 5.6 
C 1.485137 5.6 2.909647 5.009949 3.959798 3.959798 
C 5.009949 2.909647 5.6 1.485137 5.6 -0 
C 5.6 -1.485137 5.009949 -2.909647 3.959798 -3.959798 
C 2.909647 -5.009949 1.485137 -5.6 0 -5.6 
C -1.485137 -5.6 -2.909647 -5.009949 -3.959798 -3.959798 
C -5.009949 -2.909647 -5.6 -1.485137 -5.6 0 
C -5.6 1.485137 -5.009949 2.909647 -3.959798 3.959798 
C -2.909647 5.009949 -1.485137 5.6 0 5.6 
z
"/>
    </defs>
    <g clip-path="url(#pa22426bdd7)">
     <use xlink:href="#C0_0_5f30103973" x="251.725848" y="299.2" style="fill-opacity: 0.180392"/>
    </g>
    <g clip-path="url(#pa22426bdd7)">
     <use xlink:href="#C0_0_5f30103973" x="251.725848" y="277.2" style="fill-opacity: 0.180392"/>
    </g>
    <g clip-path="url(#pa22426bdd7)">
     <use xlink:href="#C0_0_5f30103973" x="251.725848" y="255.2" style="fill-opacity: 0.180392"/>
    </g>
    <g clip-path="url(#pa22426bdd7)">
     <use xlink:href="#C0_0_5f30103973" x="251.725848" y="233.2" style="stroke: #000000"/>
    </g>
    <g clip-path="url(#pa22426bdd7)">
     <use xlink:href="#C0_0_5f30103973" x="251.725848" y="211.2" style="fill-opacity: 0.180392"/>
    </g>
    <g clip-path="url(#pa22426bdd7)">
     <use xlink:href="#C0_0_5f30103973" x="276.322807" y="299.2" style="fill-opacity: 0.180392"/>
    </g>
    <g clip-path="url(#pa22426bdd7)">
     <use xlink:href="#C0_0_5f30103973" x="276.322807" y="277.2" style="fill-opacity: 0.180392"/>
    </g>
    <g clip-path="url(#pa22426bdd7)">
     <use xlink:href="#C0_0_5f30103973" x="276.322807" y="255.2" style="fill-opacity: 0.180392"/>
    </g>
    <g clip-path="url(#pa22426bdd7)">
     <use xlink:href="#C0_0_5f30103973" x="276.322807" y="233.2" style="fill-opacity: 0.180392"/>
    </g>
    <g clip-path="url(#pa22426bdd7)">
     <use xlink:href="#C0_0_5f30103973" x="276.322807" y="211.2" style="stroke: #000000"/>
    </g>
    <g clip-path="url(#pa22426bdd7)">
     <use xlink:href="#C0_0_5f30103973" x="300.919766" y="299.2" style="stroke: #000000"/>
    </g>
    <g clip-path="url(#pa22426bdd7)">
     <use xlink:href="#C0_0_5f30103973" x="300.919766" y="277.2" style="fill-opacity: 0.180392"/>
    </g>
    <g clip-path="url(#pa22426bdd7)">
     <use xlink:href="#C0_0_5f30103973" x="300.919766" y="255.2" style="stroke: #000000"/>
    </g>
    <g clip-path="url(#pa22426bdd7)">
     <use xlink:href="#C0_0_5f30103973" x="300.919766" y="233.2" style="fill-opacity: 0.180392"/>
    </g>
    <g clip-path="url(#pa22426bdd7)">
     <use xlink:href="#C0_0_5f30103973" x="300.919766" y="211.2" style="fill-opacity: 0.180392"/>
    </g>
    <g clip-path="url(#pa22426bdd7)">
     <use xlink:href="#C0_0_5f30103973" x="325.516725" y="299.2" style="fill-opacity: 0.180392"/>
    </g>
    <g clip-path="url(#pa22426bdd7)">
     <use xlink:href="#C0_0_5f30103973" x="325.516725" y="277.2" style="fill-opacity: 0.180392"/>
    </g>
    <g clip-path="url(#pa22426bdd7)">
     <use xlink:href="#C0_0_5f30103973" x="325.516725" y="255.2" style="stroke: #000000"/>
    </g>
    <g clip-path="url(#pa22426bdd7)">
     <use xlink:href="#C0_0_5f30103973" x="325.516725" y="233.2" style="stroke: #000000"/>
    </g>
    <g clip-path="url(#pa22426bdd7)">
     <use xlink:href="#C0_0_5f30103973" x="325.516725" y="211.2" style="fill-opacity: 0.180392"/>
    </g>
    <g clip-path="url(#pa22426bdd7)">
     <use xlink:href="#C0_0_5f30103973" x="350.113684" y="299.2" style="stroke: #000000"/>
    </g>
    <g clip-path="url(#pa22426bdd7)">
     <use xlink:href="#C0_0_5f30103973" x="350.113684" y="277.2" style="stroke: #000000"/>
    </g>
    <g clip-path="url(#pa22426bdd7)">
     <use xlink:href="#C0_0_5f30103973" x="350.113684" y="255.2" style="fill-opacity: 0.180392"/>
    </g>
    <g clip-path="url(#pa22426bdd7)">
     <use xlink:href="#C0_0_5f30103973" x="350.113684" y="233.2" style="fill-opacity: 0.180392"/>
    </g>
    <g clip-path="url(#pa22426bdd7)">
     <use xlink:href="#C0_0_5f30103973" x="350.113684" y="211.2" style="stroke: #000000"/>
    </g>
    <g clip-path="url(#pa22426bdd7)">
     <use xlink:href="#C0_0_5f30103973" x="374.710643" y="299.2" style="fill-opacity: 0.180392"/>
    </g>
    <g clip-path="url(#pa22426bdd7)">
     <use xlink:href="#C0_0_5f30103973" x="374.710643" y="277.2" style="stroke: #000000"/>
    </g>
    <g clip-path="url(#pa22426bdd7)">
     <use xlink:href="#C0_0_5f30103973" x="374.710643" y="255.2" style="fill-opacity: 0.180392"/>
    </g>
    <g clip-path="url(#pa22426bdd7)">
     <use xlink:href="#C0_0_5f30103973" x="374.710643" y="233.2" style="stroke: #000000"/>
    </g>
    <g clip-path="url(#pa22426bdd7)">
     <use xlink:href="#C0_0_5f30103973" x="374.710643" y="211.2" style="stroke: #000000"/>
    </g>
    <g clip-path="url(#pa22426bdd7)">
     <use xlink:href="#C0_0_5f30103973" x="399.307602" y="299.2" style="stroke: #000000"/>
    </g>
    <g clip-path="url(#pa22426bdd7)">
     <use xlink:href="#C0_0_5f30103973" x="399.307602" y="277.2" style="stroke: #000000"/>
    </g>
    <g clip-path="url(#pa22426bdd7)">
     <use xlink:href="#C0_0_5f30103973" x="399.307602" y="255.2" style="stroke: #000000"/>
    </g>
    <g clip-path="url(#pa22426bdd7)">
     <use xlink:href="#C0_0_5f30103973" x="399.307602" y="233.2" style="stroke: #000000"/>
    </g>
    <g clip-path="url(#pa22426bdd7)">
     <use xlink:href="#C0_0_5f30103973" x="399.307602" y="211.2" style="fill-opacity: 0.180392"/>
    </g>
    <g clip-path="url(#pa22426bdd7)">
     <use xlink:href="#C0_0_5f30103973" x="423.904561" y="299.2" style="stroke: #000000"/>
    </g>
    <g clip-path="url(#pa22426bdd7)">
     <use xlink:href="#C0_0_5f30103973" x="423.904561" y="277.2" style="stroke: #000000"/>
    </g>
    <g clip-path="url(#pa22426bdd7)">
     <use xlink:href="#C0_0_5f30103973" x="423.904561" y="255.2" style="stroke: #000000"/>
    </g>
    <g clip-path="url(#pa22426bdd7)">
     <use xlink:href="#C0_0_5f30103973" x="423.904561" y="233.2" style="fill-opacity: 0.180392"/>
    </g>
    <g clip-path="url(#pa22426bdd7)">
     <use xlink:href="#C0_0_5f30103973" x="423.904561" y="211.2" style="stroke: #000000"/>
    </g>
    <g clip-path="url(#pa22426bdd7)">
     <use xlink:href="#C0_0_5f30103973" x="448.50152" y="299.2" style="stroke: #000000"/>
    </g>
    <g clip-path="url(#pa22426bdd7)">
     <use xlink:href="#C0_0_5f30103973" x="448.50152" y="277.2" style="stroke: #000000"/>
    </g>
    <g clip-path="url(#pa22426bdd7)">
     <use xlink:href="#C0_0_5f30103973" x="448.50152" y="255.2" style="stroke: #000000"/>
    </g>
    <g clip-path="url(#pa22426bdd7)">
     <use xlink:href="#C0_0_5f30103973" x="448.50152" y="233.2" style="stroke: #000000"/>
    </g>
    <g clip-path="url(#pa22426bdd7)">
     <use xlink:href="#C0_0_5f30103973" x="448.50152" y="211.2" style="stroke: #000000"/>
    </g>
   </g>
  </g>
  <g id="axes_3">
   <g id="patch_7">
    <path d="M 109.945263 304.7 
L 64 304.7 
L 64 293.7 
L 109.945263 293.7 
z
" clip-path="url(#p12939017b0)" style="stroke: #000000; stroke-linejoin: miter"/>
   </g>
   <g id="patch_8">
    <path d="M 109.945263 282.7 
L 64 282.7 
L 64 271.7 
L 109.945263 271.7 
z
" clip-path="url(#p12939017b0)" style="stroke: #000000; stroke-linejoin: miter"/>
   </g>
   <g id="patch_9">
    <path d="M 109.945263 260.7 
L 64 260.7 
L 64 249.7 
L 109.945263 249.7 
z
" clip-path="url(#p12939017b0)" style="stroke: #000000; stroke-linejoin: miter"/>
   </g>
   <g id="patch_10">
    <path d="M 109.945263 238.7 
L 64 238.7 
L 64 227.7 
L 109.945263 227.7 
z
" clip-path="url(#p12939017b0)" style="stroke: #000000; stroke-linejoin: miter"/>
   </g>
   <g id="patch_11">
    <path d="M 109.945263 216.7 
L 64 216.7 
L 64 205.7 
L 109.945263 205.7 
z
" clip-path="url(#p12939017b0)" style="stroke: #000000; stroke-linejoin: miter"/>
   </g>
   <g id="matplotlib.axis_4">
    <g id="xtick_1">
     <g id="line2d_6">
      <path d="M 109.945263 313.28 
L 109.945263 197.12 
" clip-path="url(#p12939017b0)" style="fill: none; stroke: #b0b0b0; stroke-width: 0.8; stroke-linecap: square"/>
     </g>
     <g id="line2d_7">
      <defs>
       <path id="mb29ded8f5b" d="M 0 0 
L 0 3.5 
" style="stroke: #000000; stroke-width: 0.8"/>
      </defs>
      <g>
       <use xlink:href="#mb29ded8f5b" x="109.945263" y="313.28" style="stroke: #000000; stroke-width: 0.8"/>
      </g>
     </g>
     <g id="text_6">
      <!-- 0 -->
      <g transform="translate(104.855263 332.4375) scale(0.16 -0.16)">
       <defs>
        <path id="DejaVuSans-30" d="M 2034 4250 
Q 1547 4250 1301 3770 
Q 1056 3291 1056 2328 
Q 1056 1369 1301 889 
Q 1547 409 2034 409 
Q 2525 409 2770 889 
Q 3016 1369 3016 2328 
Q 3016 3291 2770 3770 
Q 2525 4250 2034 4250 
z
M 2034 4750 
Q 2819 4750 3233 4129 
Q 3647 3509 3647 2328 
Q 3647 1150 3233 529 
Q 2819 -91 2034 -91 
Q 1250 -91 836 529 
Q 422 1150 422 2328 
Q 422 3509 836 4129 
Q 1250 4750 2034 4750 
z
" transform="scale(0.015625)"/>
       </defs>
       <use xlink:href="#DejaVuSans-30"/>
      </g>
     </g>
    </g>
    <g id="xtick_2">
     <g id="line2d_8">
      <path d="M 64 313.28 
L 64 197.12 
" clip-path="url(#p12939017b0)" style="fill: none; stroke: #b0b0b0; stroke-width: 0.8; stroke-linecap: square"/>
     </g>
     <g id="line2d_9">
      <g>
       <use xlink:href="#mb29ded8f5b" x="64" y="313.28" style="stroke: #000000; stroke-width: 0.8"/>
      </g>
     </g>
     <g id="text_7">
      <!-- 20 -->
      <g transform="translate(53.82 332.4375) scale(0.16 -0.16)">
       <use xlink:href="#DejaVuSans-32"/>
       <use xlink:href="#DejaVuSans-30" transform="translate(63.623047 0)"/>
      </g>
     </g>
    </g>
   </g>
   <g id="patch_12">
    <path d="M 64 313.28 
L 109.945263 313.28 
" style="fill: none; stroke: #000000; stroke-width: 0.8; stroke-linejoin: miter; stroke-linecap: square"/>
   </g>
  </g>
  <g id="axes_4">
   <g id="patch_13">
    <path d="M 239.427368 184.213333 
L 460.8 184.213333 
L 460.8 42.24 
L 239.427368 42.24 
z
" style="fill: #ffffff"/>
   </g>
   <g id="matplotlib.axis_5">
    <g id="ytick_11">
     <g id="line2d_10">
      <path d="M 239.427368 184.213333 
L 460.8 184.213333 
" clip-path="url(#p84429f12c2)" style="fill: none; stroke: #b0b0b0; stroke-width: 0.8; stroke-linecap: square"/>
     </g>
     <g id="line2d_11">
      <defs>
       <path id="m7171746ff8" d="M 0 0 
L -3.5 0 
" style="stroke: #000000; stroke-width: 0.8"/>
      </defs>
      <g>
       <use xlink:href="#m7171746ff8" x="239.427368" y="184.213333" style="stroke: #000000; stroke-width: 0.8"/>
      </g>
     </g>
     <g id="text_8">
      <!-- 0 -->
      <g transform="translate(222.247368 190.292083) scale(0.16 -0.16)">
       <use xlink:href="#DejaVuSans-30"/>
      </g>
     </g>
    </g>
    <g id="ytick_12">
     <g id="line2d_12">
      <path d="M 239.427368 141.959365 
L 460.8 141.959365 
" clip-path="url(#p84429f12c2)" style="fill: none; stroke: #b0b0b0; stroke-width: 0.8; stroke-linecap: square"/>
     </g>
     <g id="line2d_13">
      <g>
       <use xlink:href="#m7171746ff8" x="239.427368" y="141.959365" style="stroke: #000000; stroke-width: 0.8"/>
      </g>
     </g>
     <g id="text_9">
      <!-- 5 -->
      <g transform="translate(222.247368 148.038115) scale(0.16 -0.16)">
       <use xlink:href="#DejaVuSans-35"/>
      </g>
     </g>
    </g>
    <g id="ytick_13">
     <g id="line2d_14">
      <path d="M 239.427368 99.705397 
L 460.8 99.705397 
" clip-path="url(#p84429f12c2)" style="fill: none; stroke: #b0b0b0; stroke-width: 0.8; stroke-linecap: square"/>
     </g>
     <g id="line2d_15">
      <g>
       <use xlink:href="#m7171746ff8" x="239.427368" y="99.705397" style="stroke: #000000; stroke-width: 0.8"/>
      </g>
     </g>
     <g id="text_10">
      <!-- 10 -->
      <g transform="translate(212.067368 105.784147) scale(0.16 -0.16)">
       <use xlink:href="#DejaVuSans-31"/>
       <use xlink:href="#DejaVuSans-30" transform="translate(63.623047 0)"/>
      </g>
     </g>
    </g>
    <g id="ytick_14">
     <g id="line2d_16">
      <path d="M 239.427368 57.451429 
L 460.8 57.451429 
" clip-path="url(#p84429f12c2)" style="fill: none; stroke: #b0b0b0; stroke-width: 0.8; stroke-linecap: square"/>
     </g>
     <g id="line2d_17">
      <g>
       <use xlink:href="#m7171746ff8" x="239.427368" y="57.451429" style="stroke: #000000; stroke-width: 0.8"/>
      </g>
     </g>
     <g id="text_11">
      <!-- 15 -->
      <g transform="translate(212.067368 63.530179) scale(0.16 -0.16)">
       <use xlink:href="#DejaVuSans-31"/>
       <use xlink:href="#DejaVuSans-35" transform="translate(63.623047 0)"/>
      </g>
     </g>
    </g>
    <g id="text_12">
     <!-- Intersection size -->
     <g transform="translate(204.739868 178.870417) rotate(-90) scale(0.16 -0.16)">
      <defs>
       <path id="DejaVuSans-49" d="M 628 4666 
L 1259 4666 
L 1259 0 
L 628 0 
L 628 4666 
z
" transform="scale(0.015625)"/>
       <path id="DejaVuSans-6e" d="M 3513 2113 
L 3513 0 
L 2938 0 
L 2938 2094 
Q 2938 2591 2744 2837 
Q 2550 3084 2163 3084 
Q 1697 3084 1428 2787 
Q 1159 2491 1159 1978 
L 1159 0 
L 581 0 
L 581 3500 
L 1159 3500 
L 1159 2956 
Q 1366 3272 1645 3428 
Q 1925 3584 2291 3584 
Q 2894 3584 3203 3211 
Q 3513 2838 3513 2113 
z
" transform="scale(0.015625)"/>
       <path id="DejaVuSans-74" d="M 1172 4494 
L 1172 3500 
L 2356 3500 
L 2356 3053 
L 1172 3053 
L 1172 1153 
Q 1172 725 1289 603 
Q 1406 481 1766 481 
L 2356 481 
L 2356 0 
L 1766 0 
Q 1100 0 847 248 
Q 594 497 594 1153 
L 594 3053 
L 172 3053 
L 172 3500 
L 594 3500 
L 594 4494 
L 1172 4494 
z
" transform="scale(0.015625)"/>
       <path id="DejaVuSans-65" d="M 3597 1894 
L 3597 1613 
L 953 1613 
Q 991 1019 1311 708 
Q 1631 397 2203 397 
Q 2534 397 2845 478 
Q 3156 559 3463 722 
L 3463 178 
Q 3153 47 2828 -22 
Q 2503 -91 2169 -91 
Q 1331 -91 842 396 
Q 353 884 353 1716 
Q 353 2575 817 3079 
Q 1281 3584 2069 3584 
Q 2775 3584 3186 3129 
Q 3597 2675 3597 1894 
z
M 3022 2063 
Q 3016 2534 2758 2815 
Q 2500 3097 2075 3097 
Q 1594 3097 1305 2825 
Q 1016 2553 972 2059 
L 3022 2063 
z
" transform="scale(0.015625)"/>
       <path id="DejaVuSans-72" d="M 2631 2963 
Q 2534 3019 2420 3045 
Q 2306 3072 2169 3072 
Q 1681 3072 1420 2755 
Q 1159 2438 1159 1844 
L 1159 0 
L 581 0 
L 581 3500 
L 1159 3500 
L 1159 2956 
Q 1341 3275 1631 3429 
Q 1922 3584 2338 3584 
Q 2397 3584 2469 3576 
Q 2541 3569 2628 3553 
L 2631 2963 
z
" transform="scale(0.015625)"/>
       <path id="DejaVuSans-73" d="M 2834 3397 
L 2834 2853 
Q 2591 2978 2328 3040 
Q 2066 3103 1784 3103 
Q 1356 3103 1142 2972 
Q 928 2841 928 2578 
Q 928 2378 1081 2264 
Q 1234 2150 1697 2047 
L 1894 2003 
Q 2506 1872 2764 1633 
Q 3022 1394 3022 966 
Q 3022 478 2636 193 
Q 2250 -91 1575 -91 
Q 1294 -91 989 -36 
Q 684 19 347 128 
L 347 722 
Q 666 556 975 473 
Q 1284 391 1588 391 
Q 1994 391 2212 530 
Q 2431 669 2431 922 
Q 2431 1156 2273 1281 
Q 2116 1406 1581 1522 
L 1381 1569 
Q 847 1681 609 1914 
Q 372 2147 372 2553 
Q 372 3047 722 3315 
Q 1072 3584 1716 3584 
Q 2034 3584 2315 3537 
Q 2597 3491 2834 3397 
z
" transform="scale(0.015625)"/>
       <path id="DejaVuSans-63" d="M 3122 3366 
L 3122 2828 
Q 2878 2963 2633 3030 
Q 2388 3097 2138 3097 
Q 1578 3097 1268 2742 
Q 959 2388 959 1747 
Q 959 1106 1268 751 
Q 1578 397 2138 397 
Q 2388 397 2633 464 
Q 2878 531 3122 666 
L 3122 134 
Q 2881 22 2623 -34 
Q 2366 -91 2075 -91 
Q 1284 -91 818 406 
Q 353 903 353 1747 
Q 353 2603 823 3093 
Q 1294 3584 2113 3584 
Q 2378 3584 2631 3529 
Q 2884 3475 3122 3366 
z
" transform="scale(0.015625)"/>
       <path id="DejaVuSans-69" d="M 603 3500 
L 1178 3500 
L 1178 0 
L 603 0 
L 603 3500 
z
M 603 4863 
L 1178 4863 
L 1178 4134 
L 603 4134 
L 603 4863 
z
" transform="scale(0.015625)"/>
       <path id="DejaVuSans-6f" d="M 1959 3097 
Q 1497 3097 1228 2736 
Q 959 2375 959 1747 
Q 959 1119 1226 758 
Q 1494 397 1959 397 
Q 2419 397 2687 759 
Q 2956 1122 2956 1747 
Q 2956 2369 2687 2733 
Q 2419 3097 1959 3097 
z
M 1959 3584 
Q 2709 3584 3137 3096 
Q 3566 2609 3566 1747 
Q 3566 888 3137 398 
Q 2709 -91 1959 -91 
Q 1206 -91 779 398 
Q 353 888 353 1747 
Q 353 2609 779 3096 
Q 1206 3584 1959 3584 
z
" transform="scale(0.015625)"/>
       <path id="DejaVuSans-20" transform="scale(0.015625)"/>
       <path id="DejaVuSans-7a" d="M 353 3500 
L 3084 3500 
L 3084 2975 
L 922 459 
L 3084 459 
L 3084 0 
L 275 0 
L 275 525 
L 2438 3041 
L 353 3041 
L 353 3500 
z
" transform="scale(0.015625)"/>
      </defs>
      <use xlink:href="#DejaVuSans-49"/>
      <use xlink:href="#DejaVuSans-6e" transform="translate(29.492188 0)"/>
      <use xlink:href="#DejaVuSans-74" transform="translate(92.871094 0)"/>
      <use xlink:href="#DejaVuSans-65" transform="translate(132.080078 0)"/>
      <use xlink:href="#DejaVuSans-72" transform="translate(193.603516 0)"/>
      <use xlink:href="#DejaVuSans-73" transform="translate(234.716797 0)"/>
      <use xlink:href="#DejaVuSans-65" transform="translate(286.816406 0)"/>
      <use xlink:href="#DejaVuSans-63" transform="translate(348.339844 0)"/>
      <use xlink:href="#DejaVuSans-74" transform="translate(403.320312 0)"/>
      <use xlink:href="#DejaVuSans-69" transform="translate(442.529297 0)"/>
      <use xlink:href="#DejaVuSans-6f" transform="translate(470.3125 0)"/>
      <use xlink:href="#DejaVuSans-6e" transform="translate(531.494141 0)"/>
      <use xlink:href="#DejaVuSans-20" transform="translate(594.873047 0)"/>
      <use xlink:href="#DejaVuSans-73" transform="translate(626.660156 0)"/>
      <use xlink:href="#DejaVuSans-69" transform="translate(678.759766 0)"/>
      <use xlink:href="#DejaVuSans-7a" transform="translate(706.542969 0)"/>
      <use xlink:href="#DejaVuSans-65" transform="translate(759.033203 0)"/>
     </g>
    </g>
   </g>
   <g id="patch_14">
    <path d="M 239.427368 184.213333 
L 239.427368 42.24 
" style="fill: none; stroke: #000000; stroke-width: 0.8; stroke-linejoin: miter; stroke-linecap: square"/>
   </g>
   <g id="patch_15">
    <path d="M 245.576608 184.213333 
L 257.875088 184.213333 
L 257.875088 175.76254 
L 245.576608 175.76254 
z
" clip-path="url(#p84429f12c2)" style="stroke: #000000; stroke-linejoin: miter"/>
   </g>
   <g id="patch_16">
    <path d="M 270.173567 184.213333 
L 282.472047 184.213333 
L 282.472047 175.76254 
L 270.173567 175.76254 
z
" clip-path="url(#p84429f12c2)" style="stroke: #000000; stroke-linejoin: miter"/>
   </g>
   <g id="patch_17">
    <path d="M 294.770526 184.213333 
L 307.069006 184.213333 
L 307.069006 175.76254 
L 294.770526 175.76254 
z
" clip-path="url(#p84429f12c2)" style="stroke: #000000; stroke-linejoin: miter"/>
   </g>
   <g id="patch_18">
    <path d="M 319.367485 184.213333 
L 331.665965 184.213333 
L 331.665965 175.76254 
L 319.367485 175.76254 
z
" clip-path="url(#p84429f12c2)" style="stroke: #000000; stroke-linejoin: miter"/>
   </g>
   <g id="patch_19">
    <path d="M 343.964444 184.213333 
L 356.262924 184.213333 
L 356.262924 175.76254 
L 343.964444 175.76254 
z
" clip-path="url(#p84429f12c2)" style="stroke: #000000; stroke-linejoin: miter"/>
   </g>
   <g id="patch_20">
    <path d="M 368.561404 184.213333 
L 380.859883 184.213333 
L 380.859883 175.76254 
L 368.561404 175.76254 
z
" clip-path="url(#p84429f12c2)" style="stroke: #000000; stroke-linejoin: miter"/>
   </g>
   <g id="patch_21">
    <path d="M 393.158363 184.213333 
L 405.456842 184.213333 
L 405.456842 175.76254 
L 393.158363 175.76254 
z
" clip-path="url(#p84429f12c2)" style="stroke: #000000; stroke-linejoin: miter"/>
   </g>
   <g id="patch_22">
    <path d="M 417.755322 184.213333 
L 430.053801 184.213333 
L 430.053801 175.76254 
L 417.755322 175.76254 
z
" clip-path="url(#p84429f12c2)" style="stroke: #000000; stroke-linejoin: miter"/>
   </g>
   <g id="patch_23">
    <path d="M 442.352281 184.213333 
L 454.65076 184.213333 
L 454.65076 49.000635 
L 442.352281 49.000635 
z
" clip-path="url(#p84429f12c2)" style="stroke: #000000; stroke-linejoin: miter"/>
   </g>
  </g>
 </g>
 <defs>
  <clipPath id="p712d963713">
   <rect x="64" y="197.12" width="396.8" height="116.16"/>
  </clipPath>
  <clipPath id="pa22426bdd7">
   <rect x="239.427368" y="197.12" width="221.372632" height="116.16"/>
  </clipPath>
  <clipPath id="p12939017b0">
   <rect x="64" y="197.12" width="45.945263" height="116.16"/>
  </clipPath>
  <clipPath id="p84429f12c2">
   <rect x="239.427368" y="42.24" width="221.372632" height="141.973333"/>
  </clipPath>
 </defs>
</svg>
