<svg version="1.1" xmlns="http://www.w3.org/2000/svg" viewBox="-1493.998737604304 -419.1775534489526 2101.9895423603116 1450.0355666549744"><rect x="-1305.9357840989394" y="413.7787131802635" width="60" height="24" rx="6" ry="6" style="stroke-width:3px;stroke:rgb(0,0,0);fill-opacity:0.5;fill:rgb(255,255,255);stroke-opacity:1;"></rect><text x="-1275.9357840989394" y="430.7787131802635" font-family="Arial" text-anchor="middle" font-size="14">COL9A3</text><rect x="-1261.3010652191333" y="21.30013009582676" width="92.49525026479441" height="24" rx="6" ry="6" style="stroke-width:3px;stroke:rgb(0,0,0);fill-opacity:0.5;fill:rgb(255,255,255);stroke-opacity:1;"></rect><text x="-1215.0534400867361" y="38.30013009582676" font-family="Arial" text-anchor="middle" font-size="14">CACNA1I</text><rect x="490.2753424883514" y="3.905905296331351" width="54" height="24" rx="6" ry="6" style="stroke-width:3px;stroke:rgb(0,0,0);fill-opacity:0.5;fill:rgb(255,255,255);stroke-opacity:1;"></rect><text x="517.2753424883514" y="20.90590529633135" font-family="Arial" text-anchor="middle" font-size="14">ESCO2</text><rect x="489.95457897376707" y="-120.43338170292219" width="54" height="24" rx="6" ry="6" style="stroke-width:1px;stroke:rgb(0,0,0);fill-opacity:0.5;fill:rgb(255,255,255);stroke-opacity:1;"></rect><text x="516.9545789737671" y="-103.43338170292219" font-family="Arial" text-anchor="middle" font-size="14">HDAC8</text><rect x="708.6657596858346" y="1.403793093382692" width="48" height="24" rx="6" ry="6" style="stroke-width:1px;stroke:rgb(0,0,0);fill-opacity:0.5;fill:rgb(255,255,255);stroke-opacity:1;"></rect><text x="732.6657596858346" y="18.403793093382692" font-family="Arial" text-anchor="middle" font-size="14">SMC3</text><rect x="667.6289846239788" y="38.262758962821415" width="156" height="24" style="stroke-width:0px;stroke:rgb(0,0,0);fill-opacity:0;fill:rgb(255,255,255);stroke-opacity:0;"></rect><text x="745.6289846239788" y="55.262758962821415" font-family="Arial" text-anchor="middle" font-size="14">Cohesion establishment</text><rect x="-1023.8007911246281" y="414.23882236636734" width="48" height="24" rx="6" ry="6" style="stroke-width:1px;stroke:rgb(0,0,0);fill-opacity:0.5;fill:rgb(255,255,255);stroke-opacity:1;"></rect><text x="-999.8007911246281" y="431.23882236636734" font-family="Arial" text-anchor="middle" font-size="14">PTK2</text><rect x="-827.9346287009174" y="412.02506553416833" width="60" height="24" rx="6" ry="6" style="stroke-width:1px;stroke:rgb(0,0,0);fill-opacity:0.5;fill:rgb(255,255,255);stroke-opacity:1;"></rect><text x="-797.9346287009174" y="429.02506553416833" font-family="Arial" text-anchor="middle" font-size="14">PIK3CA</text><rect x="-626.6495054745346" y="560.770526326912" width="144" height="24" style="stroke-width:0px;stroke:rgb(0,0,0);fill-opacity:0;fill:rgb(255,255,255);stroke-opacity:0;"></rect><text x="-554.6495054745346" y="577.770526326912" font-family="Arial" text-anchor="middle" font-size="14">Actin reorganization</text><rect x="-504.9446500801171" y="408.9609937913092" width="312" height="24" style="stroke-width:0px;stroke:rgb(0,0,0);fill-opacity:0;fill:rgb(255,255,255);stroke-opacity:0;"></rect><text x="-348.9446500801171" y="425.9609937913092" font-family="Arial" text-anchor="middle" font-size="14">Cell proliferation, Angiogenesis, and DNA repair</text><rect x="-481.08960917245315" y="340.64709013260494" width="102" height="24" style="stroke-width:0px;stroke:rgb(0,0,0);fill-opacity:0;fill:rgb(255,255,255);stroke-opacity:0;"></rect><text x="-430.08960917245315" y="357.64709013260494" font-family="Arial" text-anchor="middle" font-size="14">Cell survival</text><rect x="-598.2733395207458" y="525.0277894550032" width="240" height="24" style="stroke-width:0px;stroke:rgb(0,0,0);fill-opacity:0;fill:rgb(255,255,255);stroke-opacity:0;"></rect><text x="-478.2733395207458" y="542.0277894550032" font-family="Arial" text-anchor="middle" font-size="14">Glucose uptake and Vesicle transport</text><rect x="-602.9842934670246" y="292.2257617779514" width="126" height="24" style="stroke-width:0px;stroke:rgb(0,0,0);fill-opacity:0;fill:rgb(255,255,255);stroke-opacity:0;"></rect><text x="-539.9842934670246" y="309.2257617779514" font-family="Arial" text-anchor="middle" font-size="14">Protein synthesis</text><rect x="-519.8242201707933" y="487.02950827901964" width="270" height="24" style="stroke-width:0px;stroke:rgb(0,0,0);fill-opacity:0;fill:rgb(255,255,255);stroke-opacity:0;"></rect><text x="-384.8242201707933" y="504.02950827901964" font-family="Arial" text-anchor="middle" font-size="14">Survival signal, Growth and proliferation</text><rect x="-645.3576121766824" y="598.5931028226664" width="84" height="24" style="stroke-width:0px;stroke:rgb(0,0,0);fill-opacity:0;fill:rgb(255,255,255);stroke-opacity:0;"></rect><text x="-603.3576121766824" y="615.5931028226664" font-family="Arial" text-anchor="middle" font-size="14">Metabolism</text><rect x="-505.0859107169387" y="446.6350284516324" width="156" height="24" style="stroke-width:0px;stroke:rgb(0,0,0);fill-opacity:0;fill:rgb(255,255,255);stroke-opacity:0;"></rect><text x="-427.0859107169387" y="463.6350284516324" font-family="Arial" text-anchor="middle" font-size="14">Cell cycle progression</text><rect x="-823.1424510422711" y="53.07892296897295" width="48" height="24" rx="6" ry="6" style="stroke-width:1px;stroke:rgb(0,0,0);fill-opacity:0.5;fill:rgb(255,255,255);stroke-opacity:1;"></rect><text x="-799.1424510422711" y="70.07892296897295" font-family="Arial" text-anchor="middle" font-size="14">NRAS</text><rect x="-820.6646599034069" y="119.05196612302433" width="48" height="24" rx="6" ry="6" style="stroke-width:1px;stroke:rgb(0,0,0);fill-opacity:0.5;fill:rgb(255,255,255);stroke-opacity:1;"></rect><text x="-796.6646599034069" y="136.05196612302433" font-family="Arial" text-anchor="middle" font-size="14">HRAS</text><rect x="-675.1687373026035" y="-126.51378424286494" width="282" height="24" style="stroke-width:0px;stroke:rgb(0,0,0);fill-opacity:0;fill:rgb(255,255,255);stroke-opacity:0;"></rect><text x="-534.1687373026035" y="-109.51378424286494" font-family="Arial" text-anchor="middle" font-size="14">Proliferation, differentiation, inflamation</text><rect x="233.47369679000604" y="132.27109828092247" width="204" height="24" style="stroke-width:0px;stroke:rgb(0,0,0);fill-opacity:0;fill:rgb(255,255,255);stroke-opacity:0;"></rect><text x="335.47369679000604" y="149.27109828092247" font-family="Arial" text-anchor="middle" font-size="14"> Proliferation, differentiation</text><rect x="-822.4979416871918" y="86.47899829348097" width="48" height="24" rx="6" ry="6" style="stroke-width:1px;stroke:rgb(0,0,0);fill-opacity:0.5;fill:rgb(255,255,255);stroke-opacity:1;"></rect><text x="-798.4979416871918" y="103.47899829348097" font-family="Arial" text-anchor="middle" font-size="14">RRAS</text><rect x="-824.6852840903942" y="17.513693448784608" width="48" height="24" rx="6" ry="6" style="stroke-width:1px;stroke:rgb(0,0,0);fill-opacity:0.5;fill:rgb(255,255,255);stroke-opacity:1;"></rect><text x="-800.6852840903942" y="34.51369344878461" font-family="Arial" text-anchor="middle" font-size="14">KRAS</text><rect x="-825.3631107452721" y="-15.995867899248232" width="48" height="24" rx="6" ry="6" style="stroke-width:1px;stroke:rgb(0,0,0);fill-opacity:0.5;fill:rgb(255,255,255);stroke-opacity:1;"></rect><text x="-801.3631107452721" y="1.0041321007517685" font-family="Arial" text-anchor="middle" font-size="14">MRAS</text><rect x="-867.5261839941106" y="-121.50397528503032" width="174.02327171662026" height="24" style="stroke-width:2px;stroke:rgb(204,204,204);fill-opacity:0.5;fill:rgb(255,255,255);stroke-opacity:1;"></rect><text x="-780.5145481358005" y="-104.50397528503032" font-family="Arial" text-anchor="middle" font-size="14">MAPK Signaling Pathway </text><rect x="-864.1873926734945" y="-239.52505167731408" width="174" height="24" style="stroke-width:2px;stroke:rgb(204,204,204);fill-opacity:0.5;fill:rgb(255,255,255);stroke-opacity:1;"></rect><text x="-777.1873926734945" y="-222.52505167731408" font-family="Arial" text-anchor="middle" font-size="14">Calcium Signaling Pathway</text><rect x="-1265.3167815436045" y="-448.86792656729597" width="174" height="137.00559278662982" style="stroke-width:0px;stroke:rgb(0,0,0);fill-opacity:0;fill:rgb(255,255,255);stroke-opacity:0;"></rect><text x="-1178.3167815436045" y="-375.3651301739811" font-family="Arial" text-anchor="middle" font-size="14">Bronchial Epithelial Cell</text><rect x="36.09111553152798" y="48.79680434795774" width="113.39489246137778" height="24" rx="6" ry="6" style="stroke-width:1px;stroke:rgb(0,0,0);fill-opacity:0.5;fill:rgb(255,255,255);stroke-opacity:1;"></rect><text x="92.78856176221687" y="65.79680434795773" font-family="Arial" text-anchor="middle" font-size="14">CCND1</text><rect x="-828.754568502109" y="-69.27627015309496" width="54" height="24" rx="6" ry="6" style="stroke-width:1px;stroke:rgb(0,0,0);fill-opacity:0.5;fill:rgb(255,255,255);stroke-opacity:1;"></rect><text x="-801.754568502109" y="-52.276270153094956" font-family="Arial" text-anchor="middle" font-size="14">PPP3C</text><rect x="-1000.9245362636165" y="-201.48429995925864" width="348" height="24" style="stroke-width:0px;stroke:rgb(0,0,0);fill-opacity:0;fill:rgb(255,255,255);stroke-opacity:0;"></rect><text x="-826.9245362636165" y="-184.48429995925864" font-family="Arial" text-anchor="middle" font-size="14">Proliferation, Metabolism and Other Signaling Pathways</text><rect x="-891.2227613310383" y="869.8801118094573" width="407.9749454030418" height="24" style="stroke-width:2px;stroke:rgb(204,204,204);fill-opacity:0.5;fill:rgb(255,255,255);stroke-opacity:1;"></rect><text x="-687.2352886295174" y="886.8801118094573" font-family="Arial" text-anchor="middle" font-size="14">PI3K-Atk Signaling Pathway and MEK/ERK signaling pathway</text><rect x="-676.7894794804945" y="646.4998829452289" width="180" height="24" style="stroke-width:2px;stroke:rgb(204,204,204);fill-opacity:0.5;fill:rgb(255,255,255);stroke-opacity:1;"></rect><text x="-586.7894794804945" y="663.4998829452289" font-family="Arial" text-anchor="middle" font-size="14">Glycolysis/Gluconeogenesis</text><rect x="-973.6303205215497" y="645.000686778355" width="199.4898215699856" height="24" style="stroke-width:2px;stroke:rgb(204,204,204);fill-opacity:0.5;fill:rgb(255,255,255);stroke-opacity:1;"></rect><text x="-873.8854097365569" y="662.000686778355" font-family="Arial" text-anchor="middle" font-size="14">Glucagon Signaling Pathway</text><rect x="-339.4623036025815" y="301.6847645642056" width="150" height="24" style="stroke-width:2px;stroke:rgb(204,204,204);fill-opacity:0.5;fill:rgb(255,255,255);stroke-opacity:1;"></rect><text x="-264.4623036025815" y="318.6847645642056" font-family="Arial" text-anchor="middle" font-size="14">p53 Signaling Pathway </text><rect x="-304.96149976945543" y="345.1614534035519" width="78" height="24" style="stroke-width:2px;stroke:rgb(204,204,204);fill-opacity:0.5;fill:rgb(255,255,255);stroke-opacity:1;"></rect><text x="-265.96149976945543" y="362.1614534035519" font-family="Arial" text-anchor="middle" font-size="14">Apoptosis</text><rect x="303.09983947162857" y="7.255461386783061" width="120" height="24" style="stroke-width:0px;stroke:rgb(0,0,0);fill-opacity:0;fill:rgb(255,255,255);stroke-opacity:0;"></rect><text x="363.09983947162857" y="24.25546138678306" font-family="Arial" text-anchor="middle" font-size="14">G1/S Progression</text><rect x="488.1100571743947" y="291.1903913960873" width="90" height="24" style="stroke-width:2px;stroke:rgb(204,204,204);fill-opacity:0.5;fill:rgb(255,255,255);stroke-opacity:1;"></rect><text x="533.1100571743947" y="308.1903913960873" font-family="Arial" text-anchor="middle" font-size="14">Necroptosis</text><rect x="-823.9568032237391" y="515.5372051973534" width="54" height="24" rx="6" ry="6" style="stroke-width:3px;stroke:rgb(0,0,0);fill-opacity:0.5;fill:rgb(255,255,255);stroke-opacity:1;"></rect><text x="-796.9568032237391" y="532.5372051973534" font-family="Arial" text-anchor="middle" font-size="14">MMP20 </text><rect x="499.6537918229561" y="137.53081398527053" width="54" height="24" rx="6" ry="6" style="stroke-width:3px;stroke:rgb(0,0,0);fill-opacity:0.5;fill:rgb(255,255,255);stroke-opacity:1;"></rect><text x="526.6537918229561" y="154.53081398527053" font-family="Arial" text-anchor="middle" font-size="14">PCAT7</text><rect x="712.5644540935242" y="138.8562286109912" width="48" height="24" rx="6" ry="6" style="stroke-width:1px;stroke:rgb(0,0,0);fill-opacity:0.5;fill:rgb(255,255,255);stroke-opacity:1;"></rect><text x="736.5644540935242" y="155.8562286109912" font-family="Arial" text-anchor="middle" font-size="14">CDK4</text><rect x="674.1203240192975" y="177.8128703674822" width="156" height="24" style="stroke-width:0px;stroke:rgb(0,0,0);fill-opacity:0;fill:rgb(255,255,255);stroke-opacity:0;"></rect><text x="752.1203240192975" y="194.8128703674822" font-family="Arial" text-anchor="middle" font-size="14">S-phase Proteins, CycE</text><rect x="-23.696726709732488" y="989.6895418154273" width="150" height="52" style="stroke-width:0px;stroke:rgb(0,0,0);fill-opacity:0;fill:rgb(255,255,255);stroke-opacity:0;"></rect><text x="51.30327329026751" y="1020.6895418154273" font-family="Arial" text-anchor="middle" font-size="14"></text><rect x="-916.7845187648119" y="908.9041285702301" width="54" height="24" rx="6" ry="6" style="stroke-width:3px;stroke:rgb(0,0,0);fill-opacity:0.5;fill:rgb(255,255,255);stroke-opacity:1;"></rect><text x="-889.7845187648119" y="925.9041285702301" font-family="Arial" text-anchor="middle" font-size="14">GINS2</text><rect x="-495.3163112979794" y="908.6346710285816" width="510" height="24" style="stroke-width:0px;stroke:rgb(0,0,0);fill-opacity:0;fill:rgb(255,255,255);stroke-opacity:0;"></rect><text x="-240.31631129797935" y="925.6346710285816" font-family="Arial" text-anchor="middle" font-size="14">cell proliferation, migration and invasion, and epithelial-mesenchymal transition</text><rect x="-1376.91408941066" y="459.10036208597705" width="180" height="24" style="stroke-width:2px;stroke:rgb(204,204,204);fill-opacity:0.5;fill:rgb(255,255,255);stroke-opacity:1;"></rect><text x="-1286.91408941066" y="476.10036208597705" font-family="Arial" text-anchor="middle" font-size="14">PI3K-Atk Signaling Pathway</text><rect x="-23.623424704458763" y="-358.1969419923983" width="150" height="22.018232573310165" style="stroke-width:0px;stroke:rgb(0,0,0);fill-opacity:0;fill:rgb(255,255,255);stroke-opacity:0;"></rect><text x="51.37657529554124" y="-342.18782570574325" font-family="Arial" text-anchor="middle" font-size="14"></text><rect x="504.0443224550338" y="331.77283062892326" width="60" height="24" rx="6" ry="6" style="stroke-width:3px;stroke:rgb(0,0,0);fill-opacity:0.5;fill:rgb(255,255,255);stroke-opacity:1;"></rect><text x="534.0443224550338" y="348.77283062892326" font-family="Arial" text-anchor="middle" font-size="14">H2AC14</text><rect x="336.25525733816085" y="330.9867660161646" width="93.07438381975766" height="24" style="stroke-width:0px;stroke:rgb(0,0,0);fill-opacity:0;fill:rgb(255,255,255);stroke-opacity:0;"></rect><text x="382.7924492480397" y="347.9867660161646" font-family="Arial" text-anchor="middle" font-size="14">DNA Damage</text><rect x="628.496658828296" y="331.38971527511467" width="114" height="24" style="stroke-width:0px;stroke:rgb(0,0,0);fill-opacity:0;fill:rgb(255,255,255);stroke-opacity:0;"></rect><text x="685.496658828296" y="348.38971527511467" font-family="Arial" text-anchor="middle" font-size="14">Chromatinolysis</text><rect x="476.1180955056543" y="48.32061236249686" width="84" height="24" style="stroke-width:2px;stroke:rgb(204,204,204);fill-opacity:0.5;fill:rgb(255,255,255);stroke-opacity:1;"></rect><text x="518.1180955056543" y="65.32061236249686" font-family="Arial" text-anchor="middle" font-size="14">Cell Cycle</text><rect x="-406.7191291075909" y="849.7122632093316" width="48" height="24" rx="6" ry="6" style="stroke-width:3px;stroke:rgb(0,0,0);fill-opacity:0.5;fill:rgb(255,255,255);stroke-opacity:1;"></rect><text x="-382.7191291075909" y="866.7122632093316" font-family="Arial" text-anchor="middle" font-size="14">FTCD</text><rect x="-617.9729817479698" y="773.9306318874866" width="66" height="24" rx="6" ry="6" style="stroke-width:3px;stroke:rgb(0,0,0);fill-opacity:0.5;fill:rgb(255,255,255);stroke-opacity:1;"></rect><text x="-584.9729817479698" y="790.9306318874866" font-family="Arial" text-anchor="middle" font-size="14">ALDH3B1</text><rect x="-481.8971931193768" y="770.9331647957721" width="192" height="24" style="stroke-width:2px;stroke:rgb(204,204,204);fill-opacity:0.5;fill:rgb(255,255,255);stroke-opacity:1;"></rect><text x="-385.8971931193768" y="787.9331647957721" font-family="Arial" text-anchor="middle" font-size="14">Histidine Metabolism Pathway</text><rect x="-1215.5528365423834" y="648.4034966504244" width="56.27593640409487" height="24" rx="6" ry="6" style="stroke-width:3px;stroke:rgb(0,0,0);fill-opacity:0.5;fill:rgb(255,255,255);stroke-opacity:1;"></rect><text x="-1187.414868340336" y="665.4034966504244" font-family="Arial" text-anchor="middle" font-size="14">GCGR</text><rect x="-306.4623036025815" y="445.60759658411104" width="84" height="24" style="stroke-width:2px;stroke:rgb(204,204,204);fill-opacity:0.5;fill:rgb(255,255,255);stroke-opacity:1;"></rect><text x="-264.4623036025815" y="462.60759658411104" font-family="Arial" text-anchor="middle" font-size="14">Cell Cycle</text><rect x="-1248.3268259381405" y="728.7743711157765" width="90.82780921228466" height="24" rx="6" ry="6" style="stroke-width:3px;stroke:rgb(0,0,0);fill-opacity:0.5;fill:rgb(255,255,255);stroke-opacity:1;"></rect><text x="-1202.9129213319982" y="745.7743711157765" font-family="Arial" text-anchor="middle" font-size="14">TMPRSS3</text><rect x="-1397.8787207531166" y="730.454868290174" width="90" height="24" style="stroke-width:2px;stroke:rgb(204,204,204);fill-opacity:0.5;fill:rgb(255,255,255);stroke-opacity:1;"></rect><text x="-1352.8787207531166" y="747.454868290174" font-family="Arial" text-anchor="middle" font-size="14">Influenza A</text><rect x="-1251.4238605792048" y="85.97013628600554" width="89.6123385312407" height="24" rx="6" ry="6" style="stroke-width:3px;stroke:rgb(0,0,0);fill-opacity:0.5;fill:rgb(255,255,255);stroke-opacity:1;"></rect><text x="-1206.6176913135844" y="102.97013628600554" font-family="Arial" text-anchor="middle" font-size="14"> PLXNB3</text><rect x="-1090.5595832064625" y="156.26273637742597" width="167.99060452614052" height="24" style="stroke-width:2px;stroke:rgb(204,204,204);fill-opacity:0.5;fill:rgb(255,255,255);stroke-opacity:1;"></rect><text x="-1006.5642809433923" y="173.26273637742597" font-family="Arial" text-anchor="middle" font-size="14">Axon Guidance Pathway</text><rect x="-1231.4246334659995" y="978.2346486267804" width="150" height="52" style="stroke-width:0px;stroke:rgb(0,0,0);fill-opacity:0;fill:rgb(255,255,255);stroke-opacity:0;"></rect><text x="-1156.4246334659995" y="1009.2346486267804" font-family="Arial" text-anchor="middle" font-size="14"></text><rect x="-1214.4629895943165" y="295.9147950873238" width="50.99025744924697" height="24" rx="6" ry="6" style="stroke-width:3px;stroke:rgb(0,0,0);fill-opacity:0.5;fill:rgb(255,255,255);stroke-opacity:1;"></rect><text x="-1188.967860869693" y="312.9147950873238" font-family="Arial" text-anchor="middle" font-size="14">C7</text><rect x="-1388.8787207531166" y="265.7040565592292" width="72" height="24" style="stroke-width:2px;stroke:rgb(204,204,204);fill-opacity:0.5;fill:rgb(255,255,255);stroke-opacity:1;"></rect><text x="-1352.8787207531166" y="282.7040565592292" font-family="Arial" text-anchor="middle" font-size="14">COVID-19</text><rect x="-1083.0507410420773" y="313.6783338991977" width="102" height="24" style="stroke-width:2px;stroke:rgb(204,204,204);fill-opacity:0.5;fill:rgb(255,255,255);stroke-opacity:1;"></rect><text x="-1032.0507410420773" y="330.6783338991977" font-family="Arial" text-anchor="middle" font-size="14">Focal Adesion</text><rect x="-1590.68172042437" y="294.1347268034656" width="90" height="24" style="stroke-width:0px;stroke:rgb(0,0,0);fill-opacity:0;fill:rgb(255,255,255);stroke-opacity:0;"></rect><text x="-1545.68172042437" y="311.1347268034656" font-family="Arial" text-anchor="middle" font-size="14">Cell Damage</text><rect x="-1131.0555640408325" y="231.22254472112658" width="216" height="24" style="stroke-width:2px;stroke:rgb(204,204,204);fill-opacity:0.5;fill:rgb(255,255,255);stroke-opacity:1;"></rect><text x="-1023.0555640408323" y="248.22254472112658" font-family="Arial" text-anchor="middle" font-size="14">Regulation of Actin Cytoskeleton</text><rect x="-1239.4154288384889" y="986.6139909592267" width="150" height="52" style="stroke-width:0px;stroke:rgb(0,0,0);fill-opacity:0;fill:rgb(255,255,255);stroke-opacity:0;"></rect><text x="-1164.4154288384889" y="1017.6139909592267" font-family="Arial" text-anchor="middle" font-size="14"></text><rect x="9.172541281370982" y="-429.1126645048341" width="96" height="102.70213949506083" style="stroke-width:0px;stroke:rgb(0,0,0);fill-opacity:0;fill:rgb(255,255,255);stroke-opacity:0;"></rect><text x="57.17254128137098" y="-372.76159475730367" font-family="Arial" text-anchor="middle" font-size="14">Cell Nucleus</text><rect x="-13.698583602529226" y="992.2867596854427" width="150" height="52" style="stroke-width:0px;stroke:rgb(0,0,0);fill-opacity:0;fill:rgb(255,255,255);stroke-opacity:0;"></rect><text x="61.301416397470774" y="1023.2867596854427" font-family="Arial" text-anchor="middle" font-size="14"></text><rect x="-1382.4971341401972" y="-282.74606212714366" width="180" height="24" style="stroke-width:0px;stroke:rgb(0,0,0);fill-opacity:0;fill:rgb(255,255,255);stroke-opacity:0;"></rect><text x="-1292.4971341401972" y="-265.74606212714366" font-family="Arial" text-anchor="middle" font-size="14">Non-Small Cell Lung Cancer</text><rect x="-1246.1888830479134" y="-359.3738676023051" width="150" height="29.398881442674025" style="stroke-width:0px;stroke:rgb(0,0,0);fill-opacity:0;fill:rgb(255,255,255);stroke-opacity:0;"></rect><text x="-1171.1888830479134" y="-339.6744268809681" font-family="Arial" text-anchor="middle" font-size="14"></text><polygon points="285.5137911177903,134.27783434660765,289.9373061173556,121.41733221610666,300.58605074807394,132.27109828092247"></polygon><line x1="129.12985972256277" y1="73.29680434795773" x2="287.72554861757294" y2="127.84758328135715" stroke-width="1" stroke="black" stroke-dasharray="5, 3"></line><polygon points="-1037.912102711185,432.9753289360742,-1037.8894417793813,419.37534781541933,-1024.3007911246282,426.1979993075506"></polygon><line x1="-1244.4357840989394" y1="425.8311999701707" x2="-1037.9007722452832" y2="426.1753383757468" stroke-width="1" stroke="black"></line><polygon points="694.6456650269255,20.645917518157134,694.4876894279606,7.046835059765623,708.1657596858346,13.688400689996598"></polygon><line x1="545.7753424883514" y1="15.574831153331502" x2="694.566677227443" y2="13.846376288961379" stroke-width="1" stroke="black"></line><line x1="510.4379588378406" y1="1.4234508238605017" x2="524.0379135835328" y2="1.3883664238474773" stroke-width="3.4" stroke="black"></line><line x1="516.9868257722575" y1="-95.93338170292219" x2="517.2379362106867" y2="1.4059086238539895" stroke-width="1" stroke="black"></line><line x1="-506.57819408344295" y1="458.0458517305491" x2="-505.3144470823815" y2="444.5046943384608" stroke-width="3.4" stroke="black"></line><line x1="-767.4346287009174" y1="426.8715196751484" x2="-505.9463205829122" y2="451.27527303450495" stroke-width="1" stroke="black" stroke-dasharray="5, 3"></line><polygon points="-494.01884893556564,365.28090177745344,-495.248890751806,351.73664110622076,-481.08960917245315,357.2787296255968"></polygon><path d="M-768.2360028381909,414.71320724090396 Q-627.4509647038504,370.57074991044067 -494.63386984368583,358.5087714418371" stroke-width="1" stroke="black" stroke-dasharray="5, 3" fill="none"></path><line x1="-468.8967073902185" y1="371.44635733396285" x2="-472.8215528058659" y2="358.425006080607" stroke-width="3.4" stroke="black"></line><path d="M-767.4346287009174,421.5955988387265 Q-619.8313452918068,409.8383115869136 -470.8591300980422,364.9356817072849" stroke-width="1" stroke="black" stroke-dasharray="5, 3" fill="none"></path><polygon points="-1054.3687671323519,227.1158668768971,-1045.9296220013516,216.45093230335578,-1039.4842599933104,230.22254472112655"></polygon><line x1="-1189.557122439857" y1="111.47013628600556" x2="-1050.1491945668517" y2="221.78339959012644" stroke-width="1" stroke="black" stroke-dasharray="5, 3"></line><polygon points="-841.9592435528403,431.3082685153153,-842.1083784169106,417.7090862313573,-828.4346287009174,424.3595425092661"></polygon><line x1="-975.3007911246281" y1="425.9701441404692" x2="-842.0338109848755" y2="424.5086773733363" stroke-width="1" stroke="black"></line><polygon points="-575.2929154819235,328.12164344110255,-581.0214708796925,315.78699091033815,-565.8225406500436,316.2257617779514"></polygon><line x1="-771.7094704833393" y1="411.8453732980107" x2="-578.157193180808" y2="321.95431717572035" stroke-width="1" stroke="black" stroke-dasharray="5, 3"></line><polygon points="-527.3076461802622,526.9061705630402,-522.7748337312784,514.0837834489987,-512.2188528417288,525.0277894550032"></polygon><line x1="-768.8953339549622" y1="434.2906795390701" x2="-525.0412399557703" y2="520.4949770060194" stroke-width="1" stroke="black" stroke-dasharray="5, 3"></line><polygon points="-589.426685157408,559.4778939464613,-582.3324921047763,547.8747726020993,-574.27646728673,560.770526326912"></polygon><line x1="-777.4898768132139" y1="436.52506553416833" x2="-585.8795886310921" y2="553.6763332742803" stroke-width="1" stroke="black" stroke-dasharray="5, 3"></line><polygon points="-465.51395875986685,491.2906258350817,-463.08445744745035,477.90938809812457,-450.9179703667014,487.02950827901964"></polygon><line x1="-767.4346287009174" y1="429.56265417023667" x2="-464.2992081036586" y2="484.60000696660313" stroke-width="1" stroke="black" stroke-dasharray="5, 3"></line><polygon points="-518.4979287966323,428.91824568848506,-518.590738006998,415.318562366787,-504.9446500801171,422.0255948172705"></polygon><line x1="-767.4346287009174" y1="423.8169223848618" x2="-518.5443334018152" y2="422.118404027636" stroke-width="1" stroke="black" stroke-dasharray="5, 3"></line><polygon points="-835.9550840623384,128.85533023156063,-832.8609253922408,115.61198540767796,-821.1646599034069,125.32781648971691"></polygon><line x1="-1168.681667942003" y1="44.13437346391204" x2="-834.4080047272896" y2="122.2336578196193" stroke-width="1" stroke="black"></line><polygon points="-838.7976027223837,6.206594413368785,-840.0187497990163,-7.338471102059014,-825.8631107452721,-1.7870854209778315"></polygon><line x1="-1167.305814954339" y1="28.995472227603813" x2="-839.4081762607" y2="-0.5659383443451143" stroke-width="1" stroke="black"></line><polygon points="-838.7225814946543,36.66155670036736,-838.8468511515761,23.06212446764645,-825.1852840903942,29.737570927085212"></polygon><line x1="-1167.305814954339" y1="32.86381916074579" x2="-838.7847163231152" y2="29.861840584006906" stroke-width="1" stroke="black"></line><polygon points="-837.7209868745897,68.95104739647283,-836.6848625698974,55.39057371650038,-823.6424510422711,63.20693486117894"></polygon><line x1="-1167.305814954339" y1="36.94841525595956" x2="-837.2029247222436" y2="62.1708105564866" stroke-width="1" stroke="black"></line><polygon points="-837.4856643615517,99.26128859501738,-835.3832397356662,85.82477823360024,-822.9979416871918,94.64545804019434"></polygon><line x1="-1167.34380895824" y1="40.765305255032764" x2="-836.4344520486089" y2="92.54303341430881" stroke-width="1" stroke="black"></line><polygon points="22.568786071314133,73.16442685288689,21.497899492184548,59.60665410310825,35.591115531527976,65.31465389886799"></polygon><line x1="-772.1646599034069" y1="129.11678682234583" x2="22.03334278174934" y2="66.38554047799757" stroke-width="1" stroke="black" stroke-dasharray="5, 3"></line><polygon points="21.535223316517385,62.45142234784305,22.518139267925836,48.886988108536684,35.591115531527976,56.65212117959832"></polygon><line x1="-776.8631107452721" y1="-2.2205309862109743" x2="22.02668129222161" y2="55.66920522818987" stroke-width="1" stroke="black" stroke-dasharray="5, 3"></line><polygon points="21.761502095205067,65.11410776651176,22.237385938115974,51.52243625164443,35.59111553152786,58.794155851989004"></polygon><line x1="-776.1852840903942" y1="30.371509511993885" x2="21.99944401666052" y2="58.3182720090781" stroke-width="1" stroke="black" stroke-dasharray="5, 3"></line><polygon points="22.0239183652768,67.93662042172613,21.958626160759927,54.33677715321641,35.59111553152809,61.0714065829544"></polygon><line x1="-774.6424510422711" y1="64.96129962735934" x2="21.991272263018363" y2="61.136698787471275" stroke-width="1" stroke="black" stroke-dasharray="5, 3"></line><polygon points="22.29049075236078,70.58342677013391,21.716017302441106,56.99556526600688,35.591115531527976,63.21502256815072"></polygon><line x1="-773.9979416871918" y1="97.44317676124375" x2="22.003254027400942" y2="63.789496018070395" stroke-width="1" stroke="black" stroke-dasharray="5, 3"></line><polygon points="-1487.0479569164343,299.62723548631175,-1487.1158225925017,313.22706615621394,-1500.68172042437,306.3592851451953"></polygon><line x1="-1215.9629895943165" y1="307.78008439085306" x2="-1487.081889754468" y2="306.42715082126284" stroke-width="1" stroke="black" stroke-dasharray="5, 3"></line><polygon points="-602.1456189555553,-93.019473456724,-604.990352898088,-106.31862714394043,-590.2688322396052,-102.51378424286494"></polygon><line x1="-774.254568502109" y1="-63.15861313969022" x2="-603.5679859268216" y2="-99.66905030033222" stroke-width="1" stroke="black" stroke-dasharray="5, 3"></line><polygon points="-841.0835810910154,-41.69574837758055,-843.9949895416215,-54.980465191790024,-829.254568502109,-51.24951523529131"></polygon><line x1="-1168.2839659084116" y1="23.05037887737919" x2="-842.5392853163185" y2="-48.33810678468529" stroke-width="1" stroke="black" stroke-dasharray="5, 3"></line><polygon points="-856.2404931755793,-164.8164746200822,-863.0107986035584,-176.6115144424769,-847.8306060671741,-177.48429995925864"></polygon><line x1="-1191.5341115577337" y1="19.800130095826745" x2="-859.6256458895689" y2="-170.71399453127955" stroke-width="1" stroke="black" stroke-dasharray="5, 3"></line><polygon points="-804.6214280685153,397.8957171975938,-791.0215558398415,397.9546694133954,-797.88044416998,411.52506553416833"></polygon><line x1="-796.7188444343443" y1="143.55196612302433" x2="-797.8214919541784" y2="397.9251933054946" stroke-width="1" stroke="black"></line><polygon points="-1066.596429952617,267.4985686169288,-1071.537027798763,254.8277165176161,-1056.3958767763772,256.22254472112655"></polygon><line x1="-1162.8999587828873" y1="297.7504415068254" x2="-1069.06672887569" y2="261.1631425672725" stroke-width="1" stroke="black" stroke-dasharray="5, 3"></line><polygon points="291.54690635076327,37.13152189589215,289.4811150790664,23.689330615383554,303.95620199542344,28.344634983941027"></polygon><line x1="149.48049273674792" y1="52.08440815161422" x2="290.51401071491483" y2="30.41042625563785" stroke-width="1" stroke="black" stroke-dasharray="5, 3"></line><line x1="51.37598317308082" y1="-336.17870941908825" x2="51.30467169351533" y2="989.6895418154272" stroke-width="1" stroke="black"></line><line x1="-797.0843307194016" y1="514.0372051973534" x2="-797.8165476864151" y2="436.52506553416833" stroke-width="1" stroke="black"></line><polygon points="698.4217895961831,157.41552434745415,698.507660792025,143.81579544803395,712.0644540935242,150.7015310935859"></polygon><line x1="555.1537918229561" y1="149.71076824021137" x2="698.4647251941041" y2="150.61565989774405" stroke-width="1" stroke="black"></line><polygon points="-508.9134888790972,927.5461097632817,-508.91913137584896,913.9461109337881,-495.3163112979794,920.7404678517831"></polygon><line x1="-861.2845187648119" y1="920.8923042194017" x2="-508.9163101274731" y2="920.7461103485349" stroke-width="1" stroke="black" stroke-dasharray="5, 3"></line><polygon points="488.9091666046074,350.3383524807176,488.9798456258853,336.73853614093014,502.5443224550338,343.60912333210183"></polygon><line x1="429.32964115791856" y1="343.22862245709246" x2="488.9445061152463" y2="343.5384443108239" stroke-width="1" stroke="black"></line><polygon points="614.9139036341691,350.36828387908395,614.8795010474131,336.7683273915791,628.496658828296,343.53390304857544"></polygon><line x1="565.5443224550338" y1="343.6931479120107" x2="614.8967023407911" y2="343.5683056353315" stroke-width="1" stroke="black"></line><polygon points="-496.3932763357031,791.3976656255732,-496.59802716211374,777.7992069960414,-482.89719311937677,784.3936854843967"></polygon><line x1="-550.4729817479698" y1="785.4111683435943" x2="-496.4956517489084" y2="784.5984363108073" stroke-width="1" stroke="black" stroke-dasharray="5, 3"></line><polygon points="-378.0300826539443,809.2480127429013,-391.6190295949757,809.7962107307056,-385.37275411226443,795.9331647957721"></polygon><line x1="-383.2637388457461" y1="848.2122632093316" x2="-384.82455612446" y2="809.5221117368035" stroke-width="1" stroke="black" stroke-dasharray="5, 3"></line><polygon points="-579.6110127048164,685.0015787228302,-593.2096311631681,685.1954240843312,-586.6041672954933,671.4998829452289"></polygon><line x1="-585.1654213247018" y1="772.4306318874866" x2="-586.4103219339922" y2="685.0985014035807" stroke-width="1" stroke="black" stroke-dasharray="5, 3"></line><polygon points="-988.1557219284855,665.0412901703476,-988.3033172743496,651.4420910904796,-974.6303205215497,658.0940952845494"></polygon><line x1="-1157.7769001382885" y1="660.0818287241149" x2="-988.2295196014176" y2="658.2416906304136" stroke-width="1" stroke="black"></line><line x1="-773.1404989515642" y1="657.5267701120554" x2="-677.7894794804945" y2="658.024686898166" stroke-width="1" stroke="black"></line><line x1="-1249.8268259381405" y1="741.3000822074714" x2="-1306.8787207531166" y2="741.9393982942104" stroke-width="1" stroke="black"></line><line x1="-824.0064194482624" y1="105.24719846509934" x2="-823.989462371501" y2="91.64720903651714" stroke-width="3.4" stroke="black"></line><line x1="-1160.311522047964" y1="98.02787289461753" x2="-823.9979409098817" y2="98.44720375080824" stroke-width="1" stroke="black"></line><line x1="-1171.027992877134" y1="-329.97498615963127" x2="-1156.7092119421175" y2="978.2346486267805" stroke-width="1" stroke="black"></line><line x1="-1177.6331521054435" y1="-311.86233378066606" x2="-1164.6748980328578" y2="986.6139909592268" stroke-width="1" stroke="black"></line><line x1="57.32441435467174" y1="-326.4105250097733" x2="61.22452024077465" y2="992.2867596854427" stroke-width="1" stroke="black"></line><polygon points="-1048.1100950032767,269.69637832124187,-1056.070486787047,258.6694946885521,-1041.063407262472,256.2225447211266"></polygon><line x1="-1257.2353315226212" y1="412.2787131802635" x2="-1052.0902908951618" y2="264.182936504897" stroke-width="1" stroke="black" stroke-dasharray="5, 3"></line><line x1="-621.3008032862858" y1="602.8092869175836" x2="-611.8883030118868" y2="592.9927275109259" stroke-width="3.4" stroke="black"></line><line x1="-784.8980296033351" y1="436.52506553416833" x2="-616.5945531490863" y2="597.9010072142547" stroke-width="1" stroke="black" stroke-dasharray="5, 3"></line></svg>